<svg width="64" height="64" viewBox="0 0 64 64" fill="none" xmlns="http://www.w3.org/2000/svg">
    <rect width="64" height="64" rx="12" fill="#18181b"/>
    <rect x="1" y="1" width="62" height="62" rx="11" stroke="url(#paint0_linear_svg)" stroke-width="2"/>
    <path d="M22.3999 16H34.5999C39.4283 16 43.2999 19.8716 43.2999 24.7C43.2999 29.5284 39.4283 33.4 34.5999 33.4H22.3999V16Z" fill="url(#paint1_linear_svg)"/>
    <path d="M22.3999 16V48H35.4999C42.4035 48 47.9999 42.4036 47.9999 35.5V24.7C47.9999 19.8985 44.1014 16 39.2999 16H22.3999ZM34.5999 33.4H22.3999V16H34.5999C39.4283 16 43.2999 19.8716 43.2999 24.7C43.2999 29.5284 39.4283 33.4 34.5999 33.4Z" fill="url(#paint2_linear_svg)"/>
    <defs>
        <linearGradient id="paint0_linear_svg" x1="0" y1="0" x2="64" y2="64" gradientUnits="userSpaceOnUse">
            <stop stop-color="#A78BFA"/>
            <stop offset="1" stop-color="#4F46E5"/>
        </linearGradient>
        <linearGradient id="paint1_linear_svg" x1="22.4" y1="16" x2="43.3" y2="33.4" gradientUnits="userSpaceOnUse">
            <stop stop-color="#A78BFA"/>
            <stop offset="1" stop-color="#7C3AED"/>
        </linearGradient>
        <linearGradient id="paint2_linear_svg" x1="22.4" y1="16" x2="48" y2="48" gradientUnits="userSpaceOnUse">
            <stop stop-color="#C4B5FD"/>
            <stop offset="1" stop-color="#8B5CF6"/>
        </linearGradient>
    </defs>
</svg>
